<!-- Generator: Adobe Illustrator 18.0.0, SVG Export Plug-In  -->
<svg version="1.1"
	 xmlns="http://www.w3.org/2000/svg" xmlns:xlink="http://www.w3.org/1999/xlink" xmlns:a="http://ns.adobe.com/AdobeSVGViewerExtensions/3.0/"
	 x="0px" y="0px" width="313.3px" height="185.6px" viewBox="0 0 313.3 185.6" enable-background="new 0 0 313.3 185.6"
	 xml:space="preserve">
<defs>
</defs>
<path fill="#FFFFFF" d="M258.4,40.8c0-22.6-18.3-40.8-40.8-40.8c-22.6,0-40.8,18.3-40.8,40.8c0,22.6,18.3,40.8,40.8,40.8
	C240.1,81.7,258.4,63.4,258.4,40.8"/>
<path fill="#FFFFFF" d="M313.3,148.4c0-10.6-8.6-19.2-19.2-19.2c-10.6,0-19.2,8.6-19.2,19.2c0,10.6,8.6,19.2,19.2,19.2
	C304.7,167.6,313.3,159,313.3,148.4"/>
<path fill="#FFFFFF" d="M41.3,165c0-11.4-9.2-20.6-20.6-20.6C9.2,144.3,0,153.6,0,165c0,11.4,9.2,20.6,20.6,20.6
	C32.1,185.6,41.3,176.4,41.3,165"/>
</svg>
