<!-- Generator: Adobe Illustrator 18.0.0, SVG Export Plug-In  -->
<svg version="1.1"
	 xmlns="http://www.w3.org/2000/svg" xmlns:xlink="http://www.w3.org/1999/xlink" xmlns:a="http://ns.adobe.com/AdobeSVGViewerExtensions/3.0/"
	 x="0px" y="0px" width="399.6px" height="238.8px" viewBox="0 0 399.6 238.8" enable-background="new 0 0 399.6 238.8"
	 xml:space="preserve">
<defs>
</defs>
<path fill="#FFFFFF" d="M399.6,222.4c0-9.1-7.3-16.4-16.4-16.4c-9.1,0-16.4,7.3-16.4,16.4c0,9.1,7.3,16.4,16.4,16.4
	C392.3,238.8,399.6,231.5,399.6,222.4"/>
<path fill="#FFFFFF" d="M105.8,18.5C105.8,8.3,97.5,0,87.3,0C77.1,0,68.8,8.3,68.8,18.5c0,10.2,8.3,18.5,18.5,18.5
	C97.5,37,105.8,28.8,105.8,18.5"/>
<path fill="#FFFFFF" d="M37,212c0-10.2-8.3-18.5-18.5-18.5C8.3,193.5,0,201.8,0,212c0,10.2,8.3,18.5,18.5,18.5
	C28.8,230.5,37,222.3,37,212"/>
</svg>
