<!-- Generator: Adobe Illustrator 18.0.0, SVG Export Plug-In  -->
<svg version="1.1"
	 xmlns="http://www.w3.org/2000/svg" xmlns:xlink="http://www.w3.org/1999/xlink" xmlns:a="http://ns.adobe.com/AdobeSVGViewerExtensions/3.0/"
	 x="0px" y="0px" width="310.6px" height="143.3px" viewBox="0 0 310.6 143.3" enable-background="new 0 0 310.6 143.3"
	 xml:space="preserve">
<defs>
</defs>
<path fill="#FFFFFF" d="M175,132.2c0-6.2-5-11.2-11.2-11.2c-6.2,0-11.1,5-11.1,11.2c0,6.2,5,11.2,11.1,11.2
	C170,143.3,175,138.3,175,132.2"/>
<path fill="#FFFFFF" d="M310.6,14.6C310.6,6.5,304.1,0,296,0c-8.1,0-14.6,6.5-14.6,14.6c0,8.1,6.5,14.6,14.6,14.6
	C304.1,29.2,310.6,22.7,310.6,14.6"/>
<path fill="#FFFFFF" d="M57,42.7C57,27,44.2,14.2,28.5,14.2C12.8,14.2,0,27,0,42.7c0,15.7,12.8,28.5,28.5,28.5
	C44.2,71.2,57,58.5,57,42.7"/>
</svg>
