<?xml version="1.0" encoding="utf-8"?>
<!-- Generator: Adobe Illustrator 19.2.1, SVG Export Plug-In . SVG Version: 6.00 Build 0)  -->
<svg version="1.1" id="Layer_1" xmlns="http://www.w3.org/2000/svg" xmlns:xlink="http://www.w3.org/1999/xlink" x="0px" y="0px"
	 viewBox="0 0 31.5 30" style="enable-background:new 0 0 31.5 30;" xml:space="preserve">
<style type="text/css">
	.st0{fill:#E0301E;}
</style>
<g>
	<path class="st0" d="M18.4,30c-0.2,0-0.4-0.1-0.5-0.2l-9.4-8.4H0.8c-0.4,0-0.8-0.3-0.8-0.8V9.3c0-0.4,0.3-0.8,0.8-0.8h7.7l9.4-8.4
		c0.2-0.2,0.5-0.2,0.8-0.1c0.3,0.1,0.4,0.4,0.4,0.7v28.5c0,0.3-0.2,0.6-0.4,0.7C18.6,30,18.5,30,18.4,30z M1.5,19.9h7.3
		c0.2,0,0.4,0.1,0.5,0.2l8.4,7.5V2.4L9.3,9.9c-0.1,0.1-0.3,0.2-0.5,0.2H1.5V19.9z"/>
	<path class="st0" d="M30.8,21.2c-0.4,0-0.8-0.3-0.8-0.8v-11c0-0.4,0.3-0.8,0.8-0.8s0.8,0.3,0.8,0.8v11
		C31.5,20.9,31.2,21.2,30.8,21.2z M25,21.2c-0.4,0-0.8-0.3-0.8-0.8v-11c0-0.4,0.3-0.8,0.8-0.8s0.8,0.3,0.8,0.8v11
		C25.7,20.9,25.4,21.2,25,21.2z"/>
</g>
</svg>
