<?xml version="1.0" encoding="utf-8"?>
<!-- Generator: Adobe Illustrator 19.2.1, SVG Export Plug-In . SVG Version: 6.00 Build 0)  -->
<svg version="1.1" id="Layer_1" xmlns="http://www.w3.org/2000/svg" xmlns:xlink="http://www.w3.org/1999/xlink" x="0px" y="0px"
	 viewBox="0 0 36 36" style="enable-background:new 0 0 36 36;" xml:space="preserve">
<style type="text/css">
	.st0{clip-path:url(#SVGID_2_);fill:url(#SVGID_3_);}
	.st1{opacity:0.25;}
	.st2{fill:#D48235;}
</style>
<g>
	<g>
		<g>
			<defs>
				<path id="SVGID_1_" d="M6,18c0-6.6,5.4-12,12-12s12,5.4,12,12s-5.4,12-12,12S6,24.6,6,18 M18,0C8.1,0,0,8.1,0,18s8.1,18,18,18
					s18-8.1,18-18S27.9,0,18,0z"/>
			</defs>
			<clipPath id="SVGID_2_">
				<use xlink:href="#SVGID_1_"  style="overflow:visible;"/>
			</clipPath>
			
				<linearGradient id="SVGID_3_" gradientUnits="userSpaceOnUse" x1="-637.4328" y1="341.1774" x2="-636.4328" y2="341.1774" gradientTransform="matrix(25.3967 -25.3967 -25.3967 -25.3967 24858.6113 -7493.0684)">
				<stop  offset="0" style="stop-color:#D48235"/>
				<stop  offset="0.5" style="stop-color:#FFFFFF"/>
				<stop  offset="1" style="stop-color:#D48235"/>
			</linearGradient>
			<polygon class="st0" points="-18,18 18,-18 54,18 18,54 			"/>
		</g>
		<g>
			<g class="st1">
				<g>
					<path class="st2" d="M30,18c0,6.6-5.4,12-12,12S6,24.6,6,18S11.4,6,18,6S30,11.4,30,18 M36,18c0-9.9-8.1-18-18-18S0,8.1,0,18
						s8.1,18,18,18S36,27.9,36,18"/>
				</g>
			</g>
		</g>
	</g>
	<g class="st1">
		<g>
			<path class="st2" d="M30,18c0,6.6-5.4,12-12,12c-6.6,0-12-5.4-12-12S11.4,6,18,6C24.6,6,30,11.4,30,18 M36,18c0-9.9-8.1-18-18-18
				S0,8.1,0,18s8.1,18,18,18S36,27.9,36,18"/>
		</g>
	</g>
</g>
</svg>
