<?xml version="1.0" encoding="utf-8"?>
<!-- Generator: Adobe Illustrator 19.2.1, SVG Export Plug-In . SVG Version: 6.00 Build 0)  -->
<svg version="1.1" id="Layer_1" xmlns="http://www.w3.org/2000/svg" xmlns:xlink="http://www.w3.org/1999/xlink" x="0px" y="0px"
	 viewBox="0 0 36 36" style="enable-background:new 0 0 36 36;" xml:space="preserve">
<style type="text/css">
	.st0{clip-path:url(#SVGID_2_);fill:url(#SVGID_3_);}
	.st1{opacity:0.25;}
	.st2{fill:#FFCA4C;}
</style>
<g>
	<g>
		<defs>
			<path id="SVGID_1_" d="M6,18c0-6.6,5.4-12,12-12c6.6,0,12,5.4,12,12s-5.4,12-12,12C11.4,30,6,24.6,6,18 M18,0C8.1,0,0,8.1,0,18
				s8.1,18,18,18s18-8.1,18-18S27.9,0,18,0z"/>
		</defs>
		<clipPath id="SVGID_2_">
			<use xlink:href="#SVGID_1_"  style="overflow:visible;"/>
		</clipPath>
		
			<linearGradient id="SVGID_3_" gradientUnits="userSpaceOnUse" x1="-639.9134" y1="343.6582" x2="-638.9134" y2="343.6582" gradientTransform="matrix(25.3967 -25.3967 -25.3967 -25.3967 24984.6152 -7493.0654)">
			<stop  offset="0" style="stop-color:#FFC94B"/>
			<stop  offset="0.5" style="stop-color:#FFFFFF"/>
			<stop  offset="1" style="stop-color:#FFC94B"/>
		</linearGradient>
		<polygon class="st0" points="-18,18 18,-18 54,18 18,54 		"/>
	</g>
	<g class="st1">
		<g>
			<path class="st2" d="M30,18c0,6.6-5.4,12-12,12c-6.6,0-12-5.4-12-12S11.4,6,18,6C24.6,6,30,11.4,30,18 M36,18c0-9.9-8.1-18-18-18
				C8.1,0,0,8.1,0,18s8.1,18,18,18C27.9,36,36,27.9,36,18"/>
		</g>
	</g>
</g>
</svg>
