<?xml version="1.0" encoding="utf-8"?>
<!-- Generator: Adobe Illustrator 16.0.0, SVG Export Plug-In . SVG Version: 6.00 Build 0)  -->
<!DOCTYPE svg PUBLIC "-//W3C//DTD SVG 1.1//EN" "http://www.w3.org/Graphics/SVG/1.1/DTD/svg11.dtd">
<svg version="1.1" id="Layer_1" xmlns="http://www.w3.org/2000/svg" xmlns:xlink="http://www.w3.org/1999/xlink" x="0px" y="0px"
	 width="70.537px" height="70.535px" viewBox="0 0 70.537 70.535" enable-background="new 0 0 70.537 70.535" xml:space="preserve">
<path fill="#B82336" d="M35.268,0C15.79,0,0,15.791,0,35.266c0,19.316,15.515,34.998,34.761,35.27h1.018
	c19.077-0.271,34.485-15.684,34.758-34.758v-1.014C70.264,15.516,54.578,0,35.268,0"/>
<path fill="#FFFFFF" d="M35.234,67.002c-17.525,0-31.74-14.213-31.74-31.742c0-17.527,14.215-31.736,31.74-31.736
	c17.533,0,31.74,14.209,31.74,31.736C66.974,52.789,52.767,67.002,35.234,67.002"/>
<path fill="#B82336" d="M35.607,26.914l6.816-6.898c0.074-0.066,0.096-0.18,0.06-0.277c-0.042-0.092-0.134-0.152-0.231-0.152h-4.326
	c-0.067,0-0.129,0.027-0.178,0.074l-8.648,8.734c-0.049,0.049-0.075,0.111-0.075,0.178s0.026,0.135,0.075,0.178l8.648,8.738
	c0.049,0.055,0.11,0.076,0.178,0.076h4.326c0.098,0,0.189-0.066,0.231-0.156c0.036-0.096,0.015-0.205-0.06-0.275l-6.461-6.549
	c6.026,0.064,11.742,0.922,16.158,2.441c4.127,1.428,6.59,3.273,6.59,4.938s-2.463,3.508-6.59,4.934
	c-4.586,1.584-10.57,2.455-16.854,2.455c-6.284,0-12.267-0.871-16.854-2.455c-4.127-1.426-6.59-3.27-6.59-4.934
	c0-2.195,4.835-5.275,13.789-6.668c0.127-0.021,0.22-0.131,0.22-0.26v-3.176c0-0.074-0.034-0.148-0.093-0.199
	c-0.052-0.045-0.137-0.062-0.205-0.059l-0.2,0.025c-0.074,0.012-0.145,0.02-0.216,0.029c-10.517,1.623-17.053,5.57-17.053,10.307
	c0,7.178,14.013,11.051,27.202,11.051c13.188,0,27.201-3.873,27.201-11.051C62.468,30.844,48.695,26.979,35.607,26.914"/>
</svg>
