<?xml version="1.0" encoding="utf-8"?>
<!-- Generator: Adobe Illustrator 19.2.1, SVG Export Plug-In . SVG Version: 6.00 Build 0)  -->
<svg version="1.1" id="Layer_1" xmlns="http://www.w3.org/2000/svg" xmlns:xlink="http://www.w3.org/1999/xlink" x="0px" y="0px"
	 viewBox="0 0 30 17" style="enable-background:new 0 0 30 17;" xml:space="preserve">
<style type="text/css">
	.st0{fill:#E0301E;}
</style>
<g>
	<path class="st0" d="M29.3,9.3H0.8C0.3,9.3,0,8.9,0,8.5s0.3-0.8,0.8-0.8h28.5c0.4,0,0.8,0.3,0.8,0.8S29.7,9.3,29.3,9.3z"/>
	<path class="st0" d="M29.3,17H0.8C0.3,17,0,16.7,0,16.3s0.3-0.8,0.8-0.8h28.5c0.4,0,0.8,0.3,0.8,0.8S29.7,17,29.3,17z"/>
	<path class="st0" d="M29.3,1.5H0.8C0.3,1.5,0,1.2,0,0.8S0.3,0,0.8,0h28.5C29.7,0,30,0.3,30,0.8S29.7,1.5,29.3,1.5z"/>
</g>
</svg>
