<?xml version="1.0" encoding="utf-8"?>
<!-- Generator: Adobe Illustrator 19.2.1, SVG Export Plug-In . SVG Version: 6.00 Build 0)  -->
<svg version="1.1" id="Layer_1" xmlns="http://www.w3.org/2000/svg" xmlns:xlink="http://www.w3.org/1999/xlink" x="0px" y="0px"
	 viewBox="0 0 51.5 31.5" style="enable-background:new 0 0 51.5 31.5;" xml:space="preserve">
<style type="text/css">
	.st0{fill:#E0301E;}
</style>
<g>
	<g>
		<path class="st0" d="M25.7,16.3c-4.4,0-8-3.7-8-8.2c0-4.5,3.6-8.2,8-8.2c4.4,0,8,3.7,8,8.2C33.8,12.7,30.2,16.3,25.7,16.3z
			 M25.7,1.5c-3.6,0-6.5,3-6.5,6.7c0,3.7,2.9,6.7,6.5,6.7c3.6,0,6.5-3,6.5-6.7C32.3,4.5,29.4,1.5,25.7,1.5z"/>
		<path class="st0" d="M37.8,31.5h-24c-0.4,0-0.8-0.3-0.8-0.8v-4.6c0-5.6,3.8-10.6,9.1-12.2c0.4-0.1,0.8,0.1,0.9,0.5
			s-0.1,0.8-0.5,0.9c-4.7,1.4-8.1,5.8-8.1,10.7V30H37v-3.8c0-4.9-3.3-9.3-8.1-10.7c-0.4-0.1-0.6-0.5-0.5-0.9s0.5-0.6,0.9-0.5
			c5.4,1.6,9.1,6.6,9.1,12.2v4.6C38.5,31.2,38.2,31.5,37.8,31.5z"/>
	</g>
	<g>
		<path class="st0" d="M8.3,15.7c-3,0-5.4-2.4-5.4-5.4c0-3,2.4-5.4,5.4-5.4c3,0,5.4,2.4,5.4,5.4C13.7,13.2,11.3,15.7,8.3,15.7z
			 M8.3,6.3c-2.1,0-3.9,1.8-3.9,3.9c0,2.2,1.7,3.9,3.9,3.9c2.1,0,3.9-1.8,3.9-3.9C12.2,8.1,10.5,6.3,8.3,6.3z"/>
		<path class="st0" d="M13.9,25.3H0.8C0.3,25.3,0,25,0,24.6v-2.9c0-3.7,2.5-6.9,6-8c0.4-0.1,0.8,0.1,0.9,0.5S6.8,15,6.4,15.1
			c-2.9,0.9-4.9,3.5-4.9,6.5v2.2h12.4c0.4,0,0.8,0.3,0.8,0.8S14.3,25.3,13.9,25.3z"/>
		<path class="st0" d="M15.7,20.4c-0.3,0-0.6-0.2-0.7-0.6c-0.6-2.3-2.4-4.1-4.7-4.7c-0.4-0.1-0.6-0.5-0.5-0.9s0.5-0.6,0.9-0.5
			c2.8,0.8,4.9,3,5.7,5.8c0.1,0.4-0.1,0.8-0.5,0.9C15.8,20.4,15.7,20.4,15.7,20.4z"/>
	</g>
	<path class="st0" d="M43.1,15.7c-3,0-5.4-2.4-5.4-5.4c0-3,2.4-5.4,5.4-5.4s5.4,2.4,5.4,5.4C48.5,13.2,46.1,15.7,43.1,15.7z
		 M43.1,6.3c-2.1,0-3.9,1.8-3.9,3.9c0,2.2,1.7,3.9,3.9,3.9s3.9-1.8,3.9-3.9C47,8.1,45.3,6.3,43.1,6.3z"/>
	<path class="st0" d="M50.8,25.3H37.6c-0.4,0-0.8-0.3-0.8-0.8s0.3-0.8,0.8-0.8H50v-2.2c0-3-2-5.7-4.9-6.5c-0.4-0.1-0.6-0.5-0.5-0.9
		s0.5-0.6,0.9-0.5c3.5,1,6,4.3,6,8v2.9C51.5,25,51.2,25.3,50.8,25.3z"/>
	<path class="st0" d="M35.8,20.4c-0.1,0-0.1,0-0.2,0c-0.4-0.1-0.6-0.5-0.5-0.9c0.8-2.8,2.9-5,5.7-5.8c0.4-0.1,0.8,0.1,0.9,0.5
		c0.1,0.4-0.1,0.8-0.5,0.9c-2.3,0.7-4,2.5-4.7,4.7C36.4,20.2,36.1,20.4,35.8,20.4z"/>
</g>
</svg>
