<?xml version="1.0" encoding="utf-8"?>
<!-- Generator: Adobe Illustrator 19.2.1, SVG Export Plug-In . SVG Version: 6.00 Build 0)  -->
<svg version="1.1" id="Layer_1" xmlns="http://www.w3.org/2000/svg" xmlns:xlink="http://www.w3.org/1999/xlink" x="0px" y="0px"
	 viewBox="0 0 25.5 31.1" style="enable-background:new 0 0 25.5 31.1;" xml:space="preserve">
<style type="text/css">
	.st0{fill:#E0301E;}
</style>
<g>
	<path class="st0" d="M12.7,16.3c-4.4,0-8-3.7-8-8.2c0-4.5,3.6-8.2,8-8.2c4.4,0,8,3.7,8,8.2C20.8,12.6,17.2,16.3,12.7,16.3z
		 M12.7,1.5c-3.6,0-6.5,3-6.5,6.7c0,3.7,2.9,6.7,6.5,6.7c3.6,0,6.5-3,6.5-6.7C19.3,4.4,16.4,1.5,12.7,1.5z"/>
	<path class="st0" d="M24.8,31.5h-24c-0.4,0-0.8-0.3-0.8-0.8v-4.6c0-5.6,3.8-10.6,9.1-12.2c0.4-0.1,0.8,0.1,0.9,0.5
		s-0.1,0.8-0.5,0.9c-4.7,1.4-8.1,5.8-8.1,10.7V30H24v-3.8c0-4.9-3.3-9.3-8.1-10.7c-0.4-0.1-0.6-0.5-0.5-0.9s0.5-0.6,0.9-0.5
		c5.4,1.6,9.1,6.6,9.1,12.2v4.6C25.5,31.1,25.2,31.5,24.8,31.5z"/>
</g>
</svg>
